<svg xmlns="http://www.w3.org/2000/svg" xmlns:xlink="http://www.w3.org/1999/xlink" t="1670357034187" class="icon" viewBox="0 0 1024 1024" version="1.1" p-id="8289" width="755" height="755"><path d="M725.333333 387.413333h-15.786666V282.88a197.546667 197.546667 0 0 0-395.093334 0v104.533333H298.666667a213.418667 213.418667 0 0 0-213.333334 213.333334V725.333333a213.418667 213.418667 0 0 0 213.333334 213.333334h426.666666a213.418667 213.418667 0 0 0 213.333334-213.333334v-124.586666a213.418667 213.418667 0 0 0-213.333334-213.333334zM378.453333 282.88a133.546667 133.546667 0 0 1 267.093334 0v104.533333H378.453333z" fill="#FFB531" p-id="8290"/><path d="M660.053333 663.466667a31.957333 31.957333 0 0 1-32 32H395.946667a32 32 0 0 1 0-64h232.106666a31.701333 31.701333 0 0 1 32 32z" fill="#030835" p-id="8291"/></svg>